<svg id="visual" viewBox="0 0 1920 1080" width="1920" height="1080" xmlns="http://www.w3.org/2000/svg" xmlns:xlink="http://www.w3.org/1999/xlink" version="1.1"><g stroke-width="1" stroke-linejoin="bevel"><path d="M989 438L1209 608L1162 420Z" fill="#000045" stroke="#000045"></path><path d="M989 438L971 671L1209 608Z" fill="#01013b" stroke="#01013b"></path><path d="M971 671L1167 827L1209 608Z" fill="#000045" stroke="#000045"></path><path d="M971 671L979 864L1167 827Z" fill="#000045" stroke="#000045"></path><path d="M1162 420L951 219L989 438Z" fill="#030031" stroke="#030031"></path><path d="M989 438L706 682L971 671Z" fill="#030033" stroke="#030033"></path><path d="M971 671L706 682L979 864Z" fill="#01013b" stroke="#01013b"></path><path d="M1447 410L1231 197L1162 420Z" fill="#000045" stroke="#000045"></path><path d="M1162 420L1231 197L951 219Z" fill="#020136" stroke="#020136"></path><path d="M1476 617L1447 410L1209 608Z" fill="#030033" stroke="#030033"></path><path d="M1209 608L1447 410L1162 420Z" fill="#000143" stroke="#000143"></path><path d="M1403 827L1476 617L1209 608Z" fill="#000140" stroke="#000140"></path><path d="M692 411L706 682L989 438Z" fill="#00013e" stroke="#00013e"></path><path d="M951 219L692 411L989 438Z" fill="#020138" stroke="#020138"></path><path d="M1167 827L1403 827L1209 608Z" fill="#030031" stroke="#030031"></path><path d="M1219 1080L1403 827L1167 827Z" fill="#030033" stroke="#030033"></path><path d="M988 0L754 201L951 219Z" fill="#000140" stroke="#000140"></path><path d="M951 219L754 201L692 411Z" fill="#03002e" stroke="#03002e"></path><path d="M1641 450L1468 224L1447 410Z" fill="#010048" stroke="#010048"></path><path d="M1447 410L1468 224L1231 197Z" fill="#000143" stroke="#000143"></path><path d="M482 668L693 856L706 682Z" fill="#030033" stroke="#030033"></path><path d="M706 682L693 856L979 864Z" fill="#030033" stroke="#030033"></path><path d="M1452 0L1185 0L1231 197Z" fill="#01013b" stroke="#01013b"></path><path d="M1231 197L988 0L951 219Z" fill="#030033" stroke="#030033"></path><path d="M1185 0L988 0L1231 197Z" fill="#030033" stroke="#030033"></path><path d="M926 1080L1219 1080L979 864Z" fill="#030031" stroke="#030031"></path><path d="M979 864L1219 1080L1167 827Z" fill="#00013e" stroke="#00013e"></path><path d="M1476 617L1641 450L1447 410Z" fill="#030031" stroke="#030031"></path><path d="M1708 656L1641 450L1476 617Z" fill="#000045" stroke="#000045"></path><path d="M693 856L926 1080L979 864Z" fill="#03002e" stroke="#03002e"></path><path d="M505 216L503 417L692 411Z" fill="#01013b" stroke="#01013b"></path><path d="M692 411L503 417L706 682Z" fill="#000140" stroke="#000140"></path><path d="M503 417L482 668L706 682Z" fill="#01013b" stroke="#01013b"></path><path d="M693 856L715 1080L926 1080Z" fill="#030031" stroke="#030031"></path><path d="M1677 841L1476 617L1403 827Z" fill="#020138" stroke="#020138"></path><path d="M1677 841L1708 656L1476 617Z" fill="#00013e" stroke="#00013e"></path><path d="M1219 1080L1418 1080L1403 827Z" fill="#000143" stroke="#000143"></path><path d="M988 0L738 0L754 201Z" fill="#01013b" stroke="#01013b"></path><path d="M754 201L505 216L692 411Z" fill="#030033" stroke="#030033"></path><path d="M1468 224L1452 0L1231 197Z" fill="#00013e" stroke="#00013e"></path><path d="M1702 0L1452 0L1468 224Z" fill="#030031" stroke="#030031"></path><path d="M485 891L715 1080L693 856Z" fill="#01013b" stroke="#01013b"></path><path d="M1418 1080L1677 841L1403 827Z" fill="#030031" stroke="#030031"></path><path d="M738 0L505 216L754 201Z" fill="#00013e" stroke="#00013e"></path><path d="M503 417L278 647L482 668Z" fill="#030031" stroke="#030031"></path><path d="M1920 403L1686 239L1641 450Z" fill="#020136" stroke="#020136"></path><path d="M1641 450L1686 239L1468 224Z" fill="#020138" stroke="#020138"></path><path d="M482 668L485 891L693 856Z" fill="#020136" stroke="#020136"></path><path d="M738 0L508 0L505 216Z" fill="#000140" stroke="#000140"></path><path d="M209 423L278 647L503 417Z" fill="#000140" stroke="#000140"></path><path d="M1677 841L1920 656L1708 656Z" fill="#000045" stroke="#000045"></path><path d="M1418 1080L1677 1080L1677 841Z" fill="#020138" stroke="#020138"></path><path d="M230 897L483 1080L485 891Z" fill="#000143" stroke="#000143"></path><path d="M485 891L483 1080L715 1080Z" fill="#020138" stroke="#020138"></path><path d="M209 423L503 417L235 255Z" fill="#000140" stroke="#000140"></path><path d="M482 668L278 647L485 891Z" fill="#030033" stroke="#030033"></path><path d="M1920 213L1702 0L1686 239Z" fill="#03002e" stroke="#03002e"></path><path d="M1686 239L1702 0L1468 224Z" fill="#00013e" stroke="#00013e"></path><path d="M1920 890L1920 656L1677 841Z" fill="#000140" stroke="#000140"></path><path d="M1708 656L1920 403L1641 450Z" fill="#030033" stroke="#030033"></path><path d="M1920 656L1920 403L1708 656Z" fill="#03002e" stroke="#03002e"></path><path d="M235 255L503 417L505 216Z" fill="#03002e" stroke="#03002e"></path><path d="M1920 403L1920 213L1686 239Z" fill="#01013b" stroke="#01013b"></path><path d="M233 0L235 255L505 216Z" fill="#000045" stroke="#000045"></path><path d="M1677 1080L1920 890L1677 841Z" fill="#030033" stroke="#030033"></path><path d="M0 658L230 897L278 647Z" fill="#010048" stroke="#010048"></path><path d="M278 647L230 897L485 891Z" fill="#020138" stroke="#020138"></path><path d="M1920 213L1920 0L1702 0Z" fill="#010048" stroke="#010048"></path><path d="M1677 1080L1920 1080L1920 890Z" fill="#000045" stroke="#000045"></path><path d="M0 407L0 658L209 423Z" fill="#030031" stroke="#030031"></path><path d="M508 0L233 0L505 216Z" fill="#01013b" stroke="#01013b"></path><path d="M0 1080L222 1080L230 897Z" fill="#000143" stroke="#000143"></path><path d="M230 897L222 1080L483 1080Z" fill="#00013e" stroke="#00013e"></path><path d="M209 423L0 658L278 647Z" fill="#03002e" stroke="#03002e"></path><path d="M0 407L209 423L235 255Z" fill="#00013e" stroke="#00013e"></path><path d="M0 181L0 407L235 255Z" fill="#03002e" stroke="#03002e"></path><path d="M0 658L0 875L230 897Z" fill="#020136" stroke="#020136"></path><path d="M233 0L0 181L235 255Z" fill="#000045" stroke="#000045"></path><path d="M233 0L0 0L0 181Z" fill="#010048" stroke="#010048"></path><path d="M0 875L0 1080L230 897Z" fill="#020136" stroke="#020136"></path></g></svg>